<svg width="56" height="57" viewBox="0 0 56 57" fill="none" xmlns="http://www.w3.org/2000/svg">
<g clip-path="url(#clip0_1_2347)">
<g clip-path="url(#clip1_1_2347)">
<path d="M32.6667 18.6961C35.244 18.6961 37.3333 16.6068 37.3333 14.0295C37.3333 11.4521 35.244 9.36279 32.6667 9.36279C30.0893 9.36279 28 11.4521 28 14.0295C28 16.6068 30.0893 18.6961 32.6667 18.6961Z" stroke="#1B5BF7" stroke-width="3.5" stroke-linecap="round" stroke-linejoin="round"/>
<path d="M9.33301 14.0293H27.9997" stroke="#1B5BF7" stroke-width="3.5" stroke-linecap="round" stroke-linejoin="round"/>
<path d="M37.333 14.0293H46.6663" stroke="#1B5BF7" stroke-width="3.5" stroke-linecap="round" stroke-linejoin="round"/>
<path d="M18.6667 32.6961C21.244 32.6961 23.3333 30.6068 23.3333 28.0295C23.3333 25.4521 21.244 23.3628 18.6667 23.3628C16.0893 23.3628 14 25.4521 14 28.0295C14 30.6068 16.0893 32.6961 18.6667 32.6961Z" stroke="#1B5BF7" stroke-width="3.5" stroke-linecap="round" stroke-linejoin="round"/>
<path d="M9.33301 28.0293H13.9997" stroke="#1B5BF7" stroke-width="3.5" stroke-linecap="round" stroke-linejoin="round"/>
<path d="M23.333 28.0293H46.6663" stroke="#1B5BF7" stroke-width="3.5" stroke-linecap="round" stroke-linejoin="round"/>
<path d="M39.6667 46.6961C42.244 46.6961 44.3333 44.6068 44.3333 42.0295C44.3333 39.4521 42.244 37.3628 39.6667 37.3628C37.0893 37.3628 35 39.4521 35 42.0295C35 44.6068 37.0893 46.6961 39.6667 46.6961Z" stroke="#1B5BF7" stroke-width="3.5" stroke-linecap="round" stroke-linejoin="round"/>
<path d="M9.33301 42.0293H34.9997" stroke="#1B5BF7" stroke-width="3.5" stroke-linecap="round" stroke-linejoin="round"/>
<path d="M44.333 42.0293H46.6663" stroke="#1B5BF7" stroke-width="3.5" stroke-linecap="round" stroke-linejoin="round"/>
</g>
</g>
<defs>
<clipPath id="clip0_1_2347">
<rect width="56" height="56" fill="white" transform="translate(0 0.0292969)"/>
</clipPath>
<clipPath id="clip1_1_2347">
<rect width="56" height="56" fill="white" transform="translate(0 0.0292969)"/>
</clipPath>
</defs>
</svg>
