<svg width="36" height="36" viewBox="0 0 36 36" fill="none" xmlns="http://www.w3.org/2000/svg">
<g clip-path="url(#clip0_1_421)">
<path opacity="0.3" fill-rule="evenodd" clip-rule="evenodd" d="M7.48199 11.0079V22.6745H27.8987V11.0079H7.48199Z" fill="#1B5BF7"/>
<path opacity="0.3" fill-rule="evenodd" clip-rule="evenodd" d="M17.2319 22.6746C16.6796 22.6746 16.2319 23.1223 16.2319 23.6746V28.5079H14.0442C13.6415 28.5079 13.315 28.8344 13.315 29.2371C13.315 29.6398 13.6415 29.9662 14.0442 29.9662H17.226C17.226 29.9662 17.2299 29.9663 17.2319 29.9663H18.1486C18.1486 29.9663 18.1525 29.9663 18.1545 29.9662H21.3358C21.7385 29.9662 22.065 29.6398 22.065 29.2371C22.065 28.8344 21.7385 28.5079 21.3358 28.5079H19.1486V23.6746C19.1486 23.1223 18.7008 22.6746 18.1486 22.6746H17.2319Z" fill="#1B5BF7"/>
<path fill-rule="evenodd" clip-rule="evenodd" d="M27.5337 8.09125H7.84625C6.03407 8.09125 4.565 9.39708 4.565 11.008V22.6746C4.565 24.2855 6.03407 25.5913 7.84625 25.5913H27.5337C29.3459 25.5913 30.815 24.2855 30.815 22.6746V11.008C30.815 9.39708 29.3459 8.09125 27.5337 8.09125ZM7.4819 22.6747V11.008H27.8986V22.6747H7.4819Z" fill="#1B5BF7"/>
</g>
<defs>
<clipPath id="clip0_1_421">
<rect width="35" height="35" fill="white" transform="translate(0.190002 0.799561)"/>
</clipPath>
</defs>
</svg>
