<svg width="24" height="25" viewBox="0 0 24 25" fill="none" xmlns="http://www.w3.org/2000/svg">
<path d="M7.8 2.08008H16.2C19.4 2.08008 22 4.68008 22 7.88008V16.2801C22 17.8183 21.3889 19.2936 20.3012 20.3813C19.2135 21.469 17.7383 22.0801 16.2 22.0801H7.8C4.6 22.0801 2 19.4801 2 16.2801V7.88008C2 6.34182 2.61107 4.86657 3.69878 3.77886C4.78649 2.69115 6.26174 2.08008 7.8 2.08008ZM7.6 4.08008C6.64522 4.08008 5.72955 4.45936 5.05442 5.13449C4.37928 5.80962 4 6.7253 4 7.68008V16.4801C4 18.4701 5.61 20.0801 7.6 20.0801H16.4C17.3548 20.0801 18.2705 19.7008 18.9456 19.0257C19.6207 18.3505 20 17.4349 20 16.4801V7.68008C20 5.69008 18.39 4.08008 16.4 4.08008H7.6ZM17.25 5.58008C17.5815 5.58008 17.8995 5.71177 18.1339 5.94619C18.3683 6.18061 18.5 6.49856 18.5 6.83008C18.5 7.1616 18.3683 7.47954 18.1339 7.71396C17.8995 7.94838 17.5815 8.08008 17.25 8.08008C16.9185 8.08008 16.6005 7.94838 16.3661 7.71396C16.1317 7.47954 16 7.1616 16 6.83008C16 6.49856 16.1317 6.18061 16.3661 5.94619C16.6005 5.71177 16.9185 5.58008 17.25 5.58008ZM12 7.08008C13.3261 7.08008 14.5979 7.60686 15.5355 8.54454C16.4732 9.48223 17 10.754 17 12.0801C17 13.4062 16.4732 14.6779 15.5355 15.6156C14.5979 16.5533 13.3261 17.0801 12 17.0801C10.6739 17.0801 9.40215 16.5533 8.46447 15.6156C7.52678 14.6779 7 13.4062 7 12.0801C7 10.754 7.52678 9.48223 8.46447 8.54454C9.40215 7.60686 10.6739 7.08008 12 7.08008ZM12 9.08008C11.2044 9.08008 10.4413 9.39615 9.87868 9.95876C9.31607 10.5214 9 11.2844 9 12.0801C9 12.8757 9.31607 13.6388 9.87868 14.2014C10.4413 14.764 11.2044 15.0801 12 15.0801C12.7956 15.0801 13.5587 14.764 14.1213 14.2014C14.6839 13.6388 15 12.8757 15 12.0801C15 11.2844 14.6839 10.5214 14.1213 9.95876C13.5587 9.39615 12.7956 9.08008 12 9.08008Z" fill="#1B5BF7"/>
</svg>
