<svg width="24" height="25" viewBox="0 0 24 25" fill="none" xmlns="http://www.w3.org/2000/svg">
<path d="M22.46 6.08008C21.69 6.43008 20.86 6.66008 20 6.77008C20.88 6.24008 21.56 5.40008 21.88 4.39008C21.05 4.89008 20.13 5.24008 19.16 5.44008C18.37 4.58008 17.26 4.08008 16 4.08008C13.65 4.08008 11.73 6.00008 11.73 8.37008C11.73 8.71008 11.77 9.04008 11.84 9.35008C8.28 9.17008 5.11 7.46008 3 4.87008C2.63 5.50008 2.42 6.24008 2.42 7.02008C2.42 8.51008 3.17 9.83008 4.33 10.5801C3.62 10.5801 2.96 10.3801 2.38 10.0801V10.1101C2.38 12.1901 3.86 13.9301 5.82 14.3201C5.19073 14.4923 4.5301 14.5162 3.89 14.3901C4.16161 15.2426 4.69354 15.9885 5.41102 16.523C6.1285 17.0575 6.99545 17.3538 7.89 17.3701C6.37363 18.5705 4.494 19.2194 2.56 19.2101C2.22 19.2101 1.88 19.1901 1.54 19.1501C3.44 20.3701 5.7 21.0801 8.12 21.0801C16 21.0801 20.33 14.5401 20.33 8.87008C20.33 8.68008 20.33 8.50008 20.32 8.31008C21.16 7.71008 21.88 6.95008 22.46 6.08008Z" fill="#1B5BF7"/>
</svg>
