<svg width="56" height="57" viewBox="0 0 56 57" fill="none" xmlns="http://www.w3.org/2000/svg">
<g clip-path="url(#clip0_1_2364)">
<path d="M56 1.45312H0V54.6057H56V1.45312Z" fill="#C4C4C4" fill-opacity="0.01"/>
<path opacity="0.3" fill-rule="evenodd" clip-rule="evenodd" d="M40.8717 8.7873H22.2271V39.7506H40.8717V8.7873ZM22.2271 6.19873C20.699 6.19873 19.4604 7.3577 19.4604 8.7873V39.7506C19.4604 41.1802 20.699 42.3392 22.2271 42.3392H40.8717C42.3997 42.3392 43.6383 41.1802 43.6383 39.7506V8.7873C43.6383 7.3577 42.3997 6.19873 40.8717 6.19873H22.2271Z" fill="#1B5BF7"/>
<path d="M5.99893 17.9477C5.99893 15.0883 8.47625 12.7705 11.5322 12.7705H25.046C28.1019 12.7705 30.5793 15.0883 30.5793 17.9477V43.7339C30.5793 46.593 28.1019 48.9109 25.046 48.9109H11.5322C8.47625 48.9109 5.99893 46.593 5.99893 43.7339V17.9477Z" fill="white" fill-opacity="0.01"/>
<path fill-rule="evenodd" clip-rule="evenodd" d="M25.046 15.359H11.5322C10.0043 15.359 8.76555 16.518 8.76555 17.9477V43.7339C8.76555 45.1634 10.0043 46.3224 11.5322 46.3224H25.046C26.574 46.3224 27.8127 45.1634 27.8127 43.7339V17.9477C27.8127 16.518 26.574 15.359 25.046 15.359ZM11.5322 12.7705C8.47625 12.7705 5.99893 15.0883 5.99893 17.9477V43.7339C5.99893 46.593 8.47625 48.9109 11.5322 48.9109H25.046C28.1019 48.9109 30.5793 46.593 30.5793 43.7339V17.9477C30.5793 15.0883 28.1019 12.7705 25.046 12.7705H11.5322Z" fill="#1B5BF7"/>
<path fill-rule="evenodd" clip-rule="evenodd" d="M22.9715 44.5299H14.1928V41.9414H22.9715V44.5299Z" fill="#1B5BF7"/>
<path fill-rule="evenodd" clip-rule="evenodd" d="M25.1909 27.2078C23.9852 28.8722 22.3066 31.189 18.9821 31.189V28.6005C20.7296 28.6005 21.6364 27.4961 23.0077 25.6081C23.0423 25.5603 23.0773 25.5121 23.1127 25.4632C24.3184 23.7988 25.9969 21.4819 29.3215 21.4819C32.646 21.4819 34.3245 23.7988 35.5302 25.4632C35.5657 25.5121 35.6006 25.5603 35.6353 25.6081C37.0065 27.4961 37.9133 28.6005 39.6608 28.6005C41.4083 28.6005 42.3152 27.4961 43.6863 25.6081C43.721 25.5603 43.7559 25.5121 43.7913 25.4632C44.9972 23.7988 46.6756 21.4819 50.0001 21.4819V24.0705C48.2527 24.0705 47.3458 25.1748 45.9747 27.0629C45.94 27.1106 45.9051 27.1589 45.8697 27.2078C44.6638 28.8722 42.9854 31.189 39.6608 31.189C36.3363 31.189 34.6578 28.8722 33.452 27.2078C33.4166 27.1589 33.3816 27.1106 33.347 27.0629C31.9758 25.1748 31.069 24.0705 29.3215 24.0705C27.5739 24.0705 26.6671 25.1748 25.296 27.0629C25.2613 27.1106 25.2263 27.1589 25.1909 27.2078Z" fill="#1B5BF7"/>
</g>
<defs>
<clipPath id="clip0_1_2364">
<rect width="56" height="53.1525" fill="white" transform="translate(0 1.45312)"/>
</clipPath>
</defs>
</svg>
