<svg width="252" height="50" viewBox="0 0 252 50" fill="none" xmlns="http://www.w3.org/2000/svg">
<g clip-path="url(#clip0_1_2307)">
<g clip-path="url(#clip1_1_2307)">
<g clip-path="url(#clip2_1_2307)">
<path d="M18.44 3.43971C23.176 3.43971 27.3147 4.39971 30.856 6.31971C34.44 8.19704 37.192 10.8424 39.112 14.2557C41.032 17.669 41.992 21.573 41.992 25.9677C41.992 30.3197 41.0107 34.2024 39.048 37.6157C37.128 41.029 34.376 43.717 30.792 45.6797C27.2507 47.5997 23.1333 48.5597 18.44 48.5597H0.584V3.43971H18.44ZM17.48 37.4877C21.1493 37.4877 24.0293 36.485 26.12 34.4797C28.2107 32.4744 29.256 29.637 29.256 25.9677C29.256 22.2557 28.2107 19.397 26.12 17.3917C24.0293 15.3437 21.1493 14.3197 17.48 14.3197H13.128V37.4877H17.48ZM81.9505 30.1917C81.9505 31.173 81.8865 32.1544 81.7585 33.1357H58.0145C58.1425 35.0984 58.6758 36.5704 59.6145 37.5517C60.5958 38.4904 61.8332 38.9597 63.3265 38.9597C65.4172 38.9597 66.9105 38.021 67.8065 36.1437H81.1825C80.6278 38.6184 79.5398 40.837 77.9185 42.7997C76.3398 44.7197 74.3345 46.2344 71.9025 47.3437C69.4705 48.453 66.7825 49.0077 63.8385 49.0077C60.2972 49.0077 57.1398 48.261 54.3665 46.7677C51.6358 45.2744 49.4812 43.141 47.9025 40.3677C46.3665 37.5944 45.5985 34.3304 45.5985 30.5757C45.5985 26.821 46.3665 23.5784 47.9025 20.8477C49.4385 18.0744 51.5718 15.941 54.3025 14.4477C57.0758 12.9544 60.2545 12.2077 63.8385 12.2077C67.3798 12.2077 70.5158 12.933 73.2465 14.3837C75.9772 15.8344 78.1105 17.925 79.6465 20.6557C81.1825 23.3437 81.9505 26.5224 81.9505 30.1917ZM69.1505 27.0557C69.1505 25.5197 68.6385 24.325 67.6145 23.4717C66.5905 22.5757 65.3105 22.1277 63.7745 22.1277C62.2385 22.1277 60.9798 22.5544 59.9985 23.4077C59.0172 24.2184 58.3772 25.4344 58.0785 27.0557H69.1505ZM99.628 1.19971V48.5597H87.084V1.19971H99.628ZM141.076 30.1917C141.076 31.173 141.012 32.1544 140.884 33.1357H117.14C117.268 35.0984 117.801 36.5704 118.74 37.5517C119.721 38.4904 120.958 38.9597 122.452 38.9597C124.542 38.9597 126.036 38.021 126.932 36.1437H140.308C139.753 38.6184 138.665 40.837 137.044 42.7997C135.465 44.7197 133.46 46.2344 131.028 47.3437C128.596 48.453 125.908 49.0077 122.964 49.0077C119.422 49.0077 116.265 48.261 113.492 46.7677C110.761 45.2744 108.606 43.141 107.028 40.3677C105.492 37.5944 104.724 34.3304 104.724 30.5757C104.724 26.821 105.492 23.5784 107.028 20.8477C108.564 18.0744 110.697 15.941 113.428 14.4477C116.201 12.9544 119.38 12.2077 122.964 12.2077C126.505 12.2077 129.641 12.933 132.372 14.3837C135.102 15.8344 137.236 17.925 138.772 20.6557C140.308 23.3437 141.076 26.5224 141.076 30.1917ZM128.276 27.0557C128.276 25.5197 127.764 24.325 126.74 23.4717C125.716 22.5757 124.436 22.1277 122.9 22.1277C121.364 22.1277 120.105 22.5544 119.124 23.4077C118.142 24.2184 117.502 25.4344 117.204 27.0557H128.276ZM163.425 36.7197L170.145 12.6557H183.521L171.169 48.5597H155.553L143.201 12.6557H156.577L163.425 36.7197ZM222.076 30.1917C222.076 31.173 222.012 32.1544 221.884 33.1357H198.14C198.268 35.0984 198.801 36.5704 199.74 37.5517C200.721 38.4904 201.958 38.9597 203.452 38.9597C205.542 38.9597 207.036 38.021 207.932 36.1437H221.308C220.753 38.6184 219.665 40.837 218.044 42.7997C216.465 44.7197 214.46 46.2344 212.028 47.3437C209.596 48.453 206.908 49.0077 203.964 49.0077C200.422 49.0077 197.265 48.261 194.492 46.7677C191.761 45.2744 189.606 43.141 188.028 40.3677C186.492 37.5944 185.724 34.3304 185.724 30.5757C185.724 26.821 186.492 23.5784 188.028 20.8477C189.564 18.0744 191.697 15.941 194.428 14.4477C197.201 12.9544 200.38 12.2077 203.964 12.2077C207.505 12.2077 210.641 12.933 213.372 14.3837C216.102 15.8344 218.236 17.925 219.772 20.6557C221.308 23.3437 222.076 26.5224 222.076 30.1917ZM209.276 27.0557C209.276 25.5197 208.764 24.325 207.74 23.4717C206.716 22.5757 205.436 22.1277 203.9 22.1277C202.364 22.1277 201.105 22.5544 200.124 23.4077C199.142 24.2184 198.502 25.4344 198.204 27.0557H209.276ZM239.753 18.9917C241.161 16.9437 242.868 15.3224 244.873 14.1277C246.878 12.933 249.033 12.3357 251.337 12.3357V25.7117H247.817C245.086 25.7117 243.06 26.245 241.737 27.3117C240.414 28.3784 239.753 30.2344 239.753 32.8797V48.5597H227.209V12.6557H239.753V18.9917Z" fill="#FF5722"/>
</g>
</g>
</g>
<defs>
<clipPath id="clip0_1_2307">
<rect width="252" height="49" fill="white" transform="translate(0 0.55957)"/>
</clipPath>
<clipPath id="clip1_1_2307">
<rect width="252" height="49" fill="white" transform="translate(0 0.55957)"/>
</clipPath>
<clipPath id="clip2_1_2307">
<rect width="252" height="49" fill="white" transform="translate(0 0.55957)"/>
</clipPath>
</defs>
</svg>
