<svg width="36" height="36" viewBox="0 0 36 36" fill="none" xmlns="http://www.w3.org/2000/svg">
<g clip-path="url(#clip0_1_391)">
<g clip-path="url(#clip1_1_391)">
<g clip-path="url(#clip2_1_391)">
<path fill-rule="evenodd" clip-rule="evenodd" d="M3.10699 7.99124C3.10699 11.2129 5.71866 13.8246 8.94033 13.8246C12.162 13.8246 14.7737 11.2129 14.7737 7.99124C14.7737 4.76957 12.162 2.1579 8.94033 2.1579C5.71866 2.1579 3.10699 4.76957 3.10699 7.99124ZM11.8572 7.99124C11.8572 9.60207 10.5514 10.9079 8.94052 10.9079C7.32969 10.9079 6.02385 9.60207 6.02385 7.99124C6.02385 6.38041 7.32969 5.07457 8.94052 5.07457C10.5514 5.07457 11.8572 6.38041 11.8572 7.99124Z" fill="#1B5BF7"/>
<path opacity="0.3" fill-rule="evenodd" clip-rule="evenodd" d="M22.0653 15.2829V18.1996H13.3153C12.2528 18.1996 11.2567 17.9155 10.3987 17.4192V25.4913C10.3987 27.1021 11.7045 28.4079 13.3153 28.4079H22.0653V31.3246H13.3153C10.0937 31.3246 7.48199 28.7129 7.48199 25.4913V11.6371V10.9079H10.3987V12.3662C10.3987 13.9771 11.7045 15.2829 13.3153 15.2829H22.0653Z" fill="#1B5BF7"/>
<path fill-rule="evenodd" clip-rule="evenodd" d="M20.607 29.8662C20.607 33.0879 23.2187 35.6996 26.4403 35.6996C29.662 35.6996 32.2737 33.0879 32.2737 29.8662C32.2737 26.6446 29.662 24.0329 26.4403 24.0329C23.2187 24.0329 20.607 26.6446 20.607 29.8662ZM29.3572 29.8662C29.3572 31.4771 28.0514 32.7829 26.4405 32.7829C24.8297 32.7829 23.5239 31.4771 23.5239 29.8662C23.5239 28.2554 24.8297 26.9496 26.4405 26.9496C28.0514 26.9496 29.3572 28.2554 29.3572 29.8662Z" fill="#1B5BF7"/>
<path fill-rule="evenodd" clip-rule="evenodd" d="M20.607 16.7412C20.607 19.9629 23.2187 22.5746 26.4403 22.5746C29.662 22.5746 32.2737 19.9629 32.2737 16.7412C32.2737 13.5196 29.662 10.9079 26.4403 10.9079C23.2187 10.9079 20.607 13.5196 20.607 16.7412ZM29.3572 16.7412C29.3572 18.3521 28.0514 19.6579 26.4405 19.6579C24.8297 19.6579 23.5239 18.3521 23.5239 16.7412C23.5239 15.1304 24.8297 13.8246 26.4405 13.8246C28.0514 13.8246 29.3572 15.1304 29.3572 16.7412Z" fill="#1B5BF7"/>
</g>
</g>
</g>
<defs>
<clipPath id="clip0_1_391">
<rect width="35" height="35" fill="white" transform="translate(0.190002 0.699585)"/>
</clipPath>
<clipPath id="clip1_1_391">
<rect width="35" height="35" fill="white" transform="translate(0.190002 0.699585)"/>
</clipPath>
<clipPath id="clip2_1_391">
<rect width="35" height="35" fill="white" transform="translate(0.190002 0.699585)"/>
</clipPath>
</defs>
</svg>
