<svg width="24" height="25" viewBox="0 0 24 25" fill="none" xmlns="http://www.w3.org/2000/svg">
<path d="M5 3.08008H19C19.5304 3.08008 20.0391 3.29079 20.4142 3.66586C20.7893 4.04094 21 4.54965 21 5.08008V19.0801C21 19.6105 20.7893 20.1192 20.4142 20.4943C20.0391 20.8694 19.5304 21.0801 19 21.0801H5C4.46957 21.0801 3.96086 20.8694 3.58579 20.4943C3.21071 20.1192 3 19.6105 3 19.0801V5.08008C3 4.54965 3.21071 4.04094 3.58579 3.66586C3.96086 3.29079 4.46957 3.08008 5 3.08008ZM18 5.08008H15.5C14.5717 5.08008 13.6815 5.44883 13.0251 6.1052C12.3687 6.76158 12 7.65182 12 8.58008V11.0801H10V14.0801H12V21.0801H15V14.0801H18V11.0801H15V9.08008C15 8.81486 15.1054 8.56051 15.2929 8.37297C15.4804 8.18544 15.7348 8.08008 16 8.08008H18V5.08008Z" fill="#1B5BF7"/>
</svg>
