<svg width="38" height="39" viewBox="0 0 38 39" fill="none" xmlns="http://www.w3.org/2000/svg">
<rect y="0.634766" width="38" height="38" rx="19" fill="#1B5BF7" fill-opacity="0.1"/>
<path d="M14.8 9.63477H23.2C26.4 9.63477 29 12.2348 29 15.4348V23.8348C29 25.373 28.3889 26.8483 27.3012 27.936C26.2135 29.0237 24.7383 29.6348 23.2 29.6348H14.8C11.6 29.6348 9 27.0348 9 23.8348V15.4348C9 13.8965 9.61107 12.4213 10.6988 11.3335C11.7865 10.2458 13.2617 9.63477 14.8 9.63477ZM14.6 11.6348C13.6452 11.6348 12.7295 12.0141 12.0544 12.6892C11.3793 13.3643 11 14.28 11 15.2348V24.0348C11 26.0248 12.61 27.6348 14.6 27.6348H23.4C24.3548 27.6348 25.2705 27.2555 25.9456 26.5804C26.6207 25.9052 27 24.9895 27 24.0348V15.2348C27 13.2448 25.39 11.6348 23.4 11.6348H14.6ZM24.25 13.1348C24.5815 13.1348 24.8995 13.2665 25.1339 13.5009C25.3683 13.7353 25.5 14.0532 25.5 14.3848C25.5 14.7163 25.3683 15.0342 25.1339 15.2686C24.8995 15.5031 24.5815 15.6348 24.25 15.6348C23.9185 15.6348 23.6005 15.5031 23.3661 15.2686C23.1317 15.0342 23 14.7163 23 14.3848C23 14.0532 23.1317 13.7353 23.3661 13.5009C23.6005 13.2665 23.9185 13.1348 24.25 13.1348ZM19 14.6348C20.3261 14.6348 21.5979 15.1615 22.5355 16.0992C23.4732 17.0369 24 18.3087 24 19.6348C24 20.9608 23.4732 22.2326 22.5355 23.1703C21.5979 24.108 20.3261 24.6348 19 24.6348C17.6739 24.6348 16.4021 24.108 15.4645 23.1703C14.5268 22.2326 14 20.9608 14 19.6348C14 18.3087 14.5268 17.0369 15.4645 16.0992C16.4021 15.1615 17.6739 14.6348 19 14.6348ZM19 16.6348C18.2044 16.6348 17.4413 16.9508 16.8787 17.5134C16.3161 18.0761 16 18.8391 16 19.6348C16 20.4304 16.3161 21.1935 16.8787 21.7561C17.4413 22.3187 18.2044 22.6348 19 22.6348C19.7956 22.6348 20.5587 22.3187 21.1213 21.7561C21.6839 21.1935 22 20.4304 22 19.6348C22 18.8391 21.6839 18.0761 21.1213 17.5134C20.5587 16.9508 19.7956 16.6348 19 16.6348Z" fill="#1B5BF7"/>
</svg>
