<svg width="36" height="36" viewBox="0 0 36 36" fill="none" xmlns="http://www.w3.org/2000/svg">
<g clip-path="url(#clip0_1_382)">
<g clip-path="url(#clip1_1_382)">
<path opacity="0.3" fill-rule="evenodd" clip-rule="evenodd" d="M11.7567 4.3454C10.7499 4.3454 9.93375 5.16155 9.93375 6.16832V30.2308C9.93375 31.2376 10.7499 32.0537 11.7567 32.0537H23.4233C24.4301 32.0537 25.2462 31.2376 25.2462 30.2308V6.16832C25.2462 5.16155 24.4301 4.3454 23.4233 4.3454H11.7567Z" fill="#1B5BF7"/>
<path fill-rule="evenodd" clip-rule="evenodd" d="M11.7567 2.15802H23.4233C25.6382 2.15802 27.4338 3.95354 27.4338 6.16843V30.2309C27.4338 32.4458 25.6382 34.2414 23.4233 34.2414H11.7567C9.54177 34.2414 7.74625 32.4458 7.74625 30.2309V6.16843C7.74625 3.95354 9.54177 2.15802 11.7567 2.15802ZM11.7566 4.34552C10.7499 4.34552 9.93373 5.16166 9.93373 6.16843V30.2309C9.93373 31.2377 10.7499 32.0539 11.7566 32.0539H23.4233C24.4301 32.0539 25.2462 31.2377 25.2462 30.2309V6.16843C25.2462 5.16166 24.4301 4.34552 23.4233 4.34552H21.79V5.29957C21.79 5.85185 21.3423 6.29957 20.79 6.29957H14.39C13.8377 6.29957 13.39 5.85185 13.39 5.29957V4.34552H11.7566Z" fill="#1B5BF7"/>
</g>
</g>
<defs>
<clipPath id="clip0_1_382">
<rect width="35" height="35" fill="white" transform="translate(0.0899963 0.699585)"/>
</clipPath>
<clipPath id="clip1_1_382">
<rect width="35" height="35" fill="white" transform="translate(0.0899963 0.699585)"/>
</clipPath>
</defs>
</svg>
