<svg width="36" height="36" viewBox="0 0 36 36" fill="none" xmlns="http://www.w3.org/2000/svg">
<g clip-path="url(#clip0_1_411)">
<g clip-path="url(#clip1_1_411)">
<path opacity="0.3" d="M27.2478 15.0184H27.4338C29.2459 15.0184 30.715 16.4874 30.715 18.2996C30.715 20.1118 29.2459 21.5808 27.4338 21.5808H27.3397C27.0563 21.582 26.8007 21.7513 26.6891 22.0117C26.567 22.2884 26.6233 22.5989 26.8181 22.7981L26.8833 22.8633C27.4994 23.4787 27.8456 24.3139 27.8456 25.1848C27.8456 26.0556 27.4994 26.8908 26.8841 27.5054C26.2687 28.1215 25.4335 28.4677 24.5627 28.4677C23.6918 28.4677 22.8566 28.1215 22.2416 27.5058L22.1846 27.4487C21.9768 27.2454 21.6663 27.1891 21.3896 27.3112C21.1292 27.4228 20.9599 27.6784 20.9588 27.9574V28.1434C20.9588 29.9555 19.4897 31.4246 17.6775 31.4246C15.8653 31.4246 14.3963 29.9555 14.3963 28.1434C14.3897 27.7786 14.2052 27.5206 13.8671 27.394C13.6012 27.2766 13.2907 27.3329 13.0915 27.5277L13.0263 27.5929C12.4109 28.209 11.5757 28.5552 10.7048 28.5552C9.83397 28.5552 8.99882 28.209 8.38422 27.5937C7.76808 26.9783 7.42187 26.1431 7.42187 25.2723C7.42187 24.4014 7.76808 23.5662 8.38379 22.9512L8.44093 22.8942C8.64416 22.6864 8.70047 22.3759 8.57844 22.0992C8.46682 21.8388 8.21118 21.6695 7.93219 21.6684H7.74625C5.93407 21.6684 4.465 20.1993 4.465 18.3871C4.465 16.5749 5.93407 15.1059 7.74625 15.1059C8.11095 15.0993 8.36896 14.9148 8.49562 14.5767C8.61297 14.3108 8.55666 14.0003 8.36191 13.8011L8.29672 13.7359C7.68058 13.1205 7.33437 12.2853 7.33437 11.4144C7.33437 10.5435 7.68058 9.70838 8.29586 9.09378C8.91132 8.47764 9.74647 8.13143 10.6173 8.13143C11.4882 8.13143 12.3234 8.47764 12.9384 9.09335L12.9954 9.15049C13.2032 9.35372 13.5137 9.41003 13.7796 9.29268L13.9367 9.25957C14.1635 9.13669 14.3077 8.89917 14.3088 8.64175V8.45581C14.3088 6.64363 15.7778 5.17456 17.59 5.17456C19.4022 5.17456 20.8712 6.64363 20.8712 8.45581V8.54989C20.8724 8.83324 21.0417 9.08888 21.3129 9.20518C21.5788 9.32253 21.8893 9.26622 22.0885 9.07147L22.1537 9.00628C22.7691 8.39014 23.6043 8.04393 24.4752 8.04393C25.346 8.04393 26.1812 8.39014 26.7958 9.00542C27.4119 9.62088 27.7581 10.456 27.7581 11.3269C27.7581 12.1978 27.4119 13.033 26.7962 13.648L26.7391 13.705C26.5358 13.9128 26.4795 14.2233 26.5969 14.4892L26.63 14.6463C26.7529 14.8731 26.9904 15.0173 27.2478 15.0184Z" fill="#1B5BF7"/>
<path fill-rule="evenodd" clip-rule="evenodd" d="M17.59 22.6746C20.0062 22.6746 21.965 20.7158 21.965 18.2996C21.965 15.8834 20.0062 13.9246 17.59 13.9246C15.1738 13.9246 13.215 15.8834 13.215 18.2996C13.215 20.7158 15.1738 22.6746 17.59 22.6746Z" fill="#1B5BF7"/>
</g>
</g>
<defs>
<clipPath id="clip0_1_411">
<rect width="35" height="35" fill="white" transform="translate(0.0899963 0.799561)"/>
</clipPath>
<clipPath id="clip1_1_411">
<rect width="35" height="35" fill="white" transform="translate(0.0899963 0.799561)"/>
</clipPath>
</defs>
</svg>
