<svg width="313" height="48" viewBox="0 0 313 48" fill="none" xmlns="http://www.w3.org/2000/svg">
<g clip-path="url(#clip0_1_2399)">
<g clip-path="url(#clip1_1_2399)">
<g clip-path="url(#clip2_1_2399)">
<path d="M18.608 46.8677C13.36 46.8677 9.05066 45.6304 5.67999 43.1557C2.30932 40.6384 0.49599 37.0544 0.23999 32.4037H13.616C13.744 33.9824 14.2133 35.1344 15.024 35.8597C15.8347 36.585 16.88 36.9477 18.16 36.9477C19.312 36.9477 20.2507 36.6704 20.976 36.1157C21.744 35.5184 22.128 34.7077 22.128 33.6837C22.128 32.361 21.5093 31.337 20.272 30.6117C19.0347 29.8864 17.0293 29.0757 14.256 28.1797C11.312 27.1984 8.92266 26.2597 7.08799 25.3637C5.29599 24.425 3.71732 23.081 2.35199 21.3317C1.02932 19.5397 0.36799 17.2144 0.36799 14.3557C0.36799 11.4544 1.09332 8.9797 2.54399 6.9317C3.99466 4.84103 5.99999 3.26237 8.55999 2.1957C11.12 1.12904 14.0213 0.595703 17.264 0.595703C22.512 0.595703 26.6933 1.83303 29.808 4.3077C32.9653 6.7397 34.6507 10.1744 34.864 14.6117H21.232C21.1893 13.2464 20.7627 12.2224 19.952 11.5397C19.184 10.857 18.1813 10.5157 16.944 10.5157C16.0053 10.5157 15.2373 10.793 14.64 11.3477C14.0427 11.9024 13.744 12.6917 13.744 13.7157C13.744 14.569 14.064 15.3157 14.704 15.9557C15.3867 16.553 16.2187 17.0864 17.2 17.5557C18.1813 17.9824 19.632 18.537 21.552 19.2197C24.4107 20.201 26.7573 21.1824 28.592 22.1637C30.4693 23.1024 32.0693 24.4464 33.392 26.1957C34.7573 27.9024 35.44 30.0784 35.44 32.7237C35.44 35.4117 34.7573 37.8224 33.392 39.9557C32.0693 42.089 30.128 43.7744 27.568 45.0117C25.0507 46.249 22.064 46.8677 18.608 46.8677ZM88.1835 10.1957C92.7062 10.1957 96.2475 11.561 98.8075 14.2917C101.41 17.0224 102.712 20.7557 102.712 25.4917V46.4197H90.1675V27.1557C90.1675 25.2357 89.6342 23.7424 88.5675 22.6757C87.5008 21.609 86.0502 21.0757 84.2155 21.0757C82.3808 21.0757 80.9302 21.609 79.8635 22.6757C78.7968 23.7424 78.2635 25.2357 78.2635 27.1557V46.4197H65.7195V27.1557C65.7195 25.2357 65.1862 23.7424 64.1195 22.6757C63.0955 21.609 61.6662 21.0757 59.8315 21.0757C57.9542 21.0757 56.4822 21.609 55.4155 22.6757C54.3488 23.7424 53.8155 25.2357 53.8155 27.1557V46.4197H41.2715V10.5157H53.8155V15.2517C54.9248 13.7157 56.3542 12.4997 58.1035 11.6037C59.8955 10.665 61.9435 10.1957 64.2475 10.1957C66.8928 10.1957 69.2395 10.7717 71.2875 11.9237C73.3782 13.0757 75.0208 14.697 76.2155 16.7877C77.4955 14.825 79.1808 13.2464 81.2715 12.0517C83.3622 10.8144 85.6662 10.1957 88.1835 10.1957ZM124.88 46.8677C121.637 46.8677 118.736 46.3344 116.176 45.2677C113.659 44.1584 111.653 42.665 110.16 40.7877C108.709 38.8677 107.899 36.713 107.728 34.3237H119.888C120.059 35.4757 120.592 36.3717 121.488 37.0117C122.384 37.6517 123.493 37.9717 124.816 37.9717C125.84 37.9717 126.651 37.7584 127.248 37.3317C127.845 36.905 128.144 36.3504 128.144 35.6677C128.144 34.7717 127.653 34.1104 126.672 33.6837C125.691 33.257 124.069 32.7877 121.808 32.2757C119.248 31.7637 117.115 31.1877 115.408 30.5477C113.701 29.9077 112.208 28.8624 110.928 27.4117C109.691 25.961 109.072 23.9984 109.072 21.5237C109.072 19.3904 109.648 17.4704 110.8 15.7637C111.952 14.0144 113.637 12.6277 115.856 11.6037C118.117 10.5797 120.827 10.0677 123.984 10.0677C128.677 10.0677 132.368 11.2197 135.056 13.5237C137.744 15.8277 139.301 18.857 139.728 22.6117H128.4C128.187 21.4597 127.675 20.585 126.864 19.9877C126.096 19.3477 125.051 19.0277 123.728 19.0277C122.704 19.0277 121.915 19.2197 121.36 19.6037C120.848 19.9877 120.592 20.521 120.592 21.2037C120.592 22.057 121.083 22.7184 122.064 23.1877C123.045 23.6144 124.624 24.0624 126.8 24.5317C129.403 25.0864 131.557 25.705 133.264 26.3877C135.013 27.0704 136.528 28.1797 137.808 29.7157C139.131 31.209 139.792 33.257 139.792 35.8597C139.792 37.9504 139.173 39.8277 137.936 41.4917C136.741 43.1557 135.013 44.4784 132.752 45.4597C130.533 46.3984 127.909 46.8677 124.88 46.8677ZM182.695 10.5157V46.4197H170.087V41.2997C169.02 42.921 167.548 44.2437 165.671 45.2677C163.794 46.249 161.639 46.7397 159.207 46.7397C155.026 46.7397 151.719 45.3744 149.287 42.6437C146.898 39.8704 145.703 36.1157 145.703 31.3797V10.5157H158.183V29.7797C158.183 31.8277 158.716 33.449 159.783 34.6437C160.892 35.7957 162.343 36.3717 164.135 36.3717C165.97 36.3717 167.42 35.7957 168.487 34.6437C169.554 33.449 170.087 31.8277 170.087 29.7797V10.5157H182.695ZM201.738 35.9877H217.034V46.4197H187.914V36.4997L202.186 20.9477H188.042V10.5157H216.522V20.4357L201.738 35.9877ZM228.352 46.9317C226.133 46.9317 224.341 46.3344 222.976 45.1397C221.653 43.9024 220.992 42.345 220.992 40.4677C220.992 38.5904 221.653 37.033 222.976 35.7957C224.341 34.5584 226.133 33.9397 228.352 33.9397C230.528 33.9397 232.277 34.5584 233.6 35.7957C234.965 37.033 235.648 38.5904 235.648 40.4677C235.648 42.3024 234.965 43.8384 233.6 45.0757C232.277 46.313 230.528 46.9317 228.352 46.9317ZM278.258 10.5157V46.4197H265.65V41.2997C264.583 42.921 263.111 44.2437 261.234 45.2677C259.356 46.249 257.202 46.7397 254.77 46.7397C250.588 46.7397 247.282 45.3744 244.85 42.6437C242.46 39.8704 241.266 36.1157 241.266 31.3797V10.5157H253.746V29.7797C253.746 31.8277 254.279 33.449 255.346 34.6437C256.455 35.7957 257.906 36.3717 259.698 36.3717C261.532 36.3717 262.983 35.7957 264.05 34.6437C265.116 33.449 265.65 31.8277 265.65 29.7797V10.5157H278.258ZM297.301 35.9877H312.597V46.4197H283.477V36.4997L297.749 20.9477H283.605V10.5157H312.085V20.4357L297.301 35.9877Z" fill="#1B5BF7"/>
</g>
</g>
</g>
<defs>
<clipPath id="clip0_1_2399">
<rect width="313" height="47" fill="white" transform="translate(0 0.419922)"/>
</clipPath>
<clipPath id="clip1_1_2399">
<rect width="313" height="47" fill="white" transform="translate(0 0.419922)"/>
</clipPath>
<clipPath id="clip2_1_2399">
<rect width="313" height="47" fill="white" transform="translate(0 0.419922)"/>
</clipPath>
</defs>
</svg>
