<svg width="38" height="39" viewBox="0 0 38 39" fill="none" xmlns="http://www.w3.org/2000/svg">
<rect y="0.634766" width="38" height="38" rx="19" fill="#1B5BF7" fill-opacity="0.1"/>
<path d="M29.46 13.6348C28.69 13.9848 27.86 14.2148 27 14.3248C27.88 13.7948 28.56 12.9548 28.88 11.9448C28.05 12.4448 27.13 12.7948 26.16 12.9948C25.37 12.1348 24.26 11.6348 23 11.6348C20.65 11.6348 18.73 13.5548 18.73 15.9248C18.73 16.2648 18.77 16.5948 18.84 16.9048C15.28 16.7248 12.11 15.0148 10 12.4248C9.63001 13.0548 9.42001 13.7948 9.42001 14.5748C9.42001 16.0648 10.17 17.3848 11.33 18.1348C10.62 18.1348 9.96001 17.9348 9.38001 17.6348V17.6648C9.38001 19.7448 10.86 21.4848 12.82 21.8748C12.1907 22.047 11.5301 22.0709 10.89 21.9448C11.1616 22.7972 11.6935 23.5432 12.411 24.0777C13.1285 24.6122 13.9955 24.9085 14.89 24.9248C13.3736 26.1252 11.494 26.7741 9.56001 26.7648C9.22001 26.7648 8.88001 26.7448 8.54001 26.7048C10.44 27.9248 12.7 28.6348 15.12 28.6348C23 28.6348 27.33 22.0948 27.33 16.4248C27.33 16.2348 27.33 16.0548 27.32 15.8648C28.16 15.2648 28.88 14.5048 29.46 13.6348Z" fill="#1B5BF7"/>
</svg>
