<svg width="96" height="33" viewBox="0 0 96 33" fill="none" xmlns="http://www.w3.org/2000/svg">
<g clip-path="url(#clip0_1_2973)">
<g clip-path="url(#clip1_1_2973)">
<g clip-path="url(#clip2_1_2973)">
<path fill-rule="evenodd" clip-rule="evenodd" d="M92.2469 24.8088C94.6194 23.9998 96 22.2767 96 19.7445C96 18.4969 95.5674 17.3562 94.7372 16.3942C93.5097 14.9678 91.452 14.0758 88.7103 13.7902C87.7737 13.6741 85.4252 13.3755 85.4252 12.0781C85.4252 10.6407 90.0852 10.2611 91.3086 11.9012C91.6274 12.3343 91.6332 12.8559 91.6332 13.3626H96C96 11.9933 95.7652 10.7236 94.9892 9.54786C94.0863 8.15643 92.2097 6.51626 88.4566 6.51626C85.6063 6.51626 83.5132 7.26449 82.2132 8.72774C81.5994 9.40409 80.9149 10.5817 80.9149 12.2919C80.9149 13.5764 81.3474 14.6821 82.2132 15.6441C82.8269 16.2855 83.6217 16.8217 84.5954 17.2124C85.5692 17.6418 86.7966 17.9256 88.2046 18.0694C89.432 18.2113 91.5252 18.6038 91.5252 19.7445C91.5252 19.9583 91.452 20.3159 90.8737 20.5997C89.6949 21.2225 86.472 21.2649 85.6772 19.9583C85.356 19.4515 85.2817 18.801 85.2817 18.2113L80.9149 18.1412C80.9149 21.2207 82.0286 23.6681 85.1006 24.772C87.1263 25.5884 90.1949 25.4833 92.2469 24.8088ZM48.415 7.27557C43.4513 8.5398 40.4425 13.5488 41.724 18.4508C43.0036 23.3529 48.0717 26.3255 53.0354 25.0613C56.947 24.0569 58.5309 21.9376 59.6926 18.5983L54.7833 18.3071C54.0838 19.4589 53.1865 20.2053 51.8603 20.5739C50.0882 21.0125 48.0028 20.3324 46.9842 18.8028L60.1554 15.5796C59.5697 10.0085 53.9924 5.85284 48.415 7.27557ZM53.0653 12.2624C53.5988 12.6089 54.0707 13.0069 54.4214 13.5082L46.1952 15.5428C46.2642 14.9383 46.4918 14.367 46.7716 13.8565C48.0606 11.7317 50.8996 11.0406 53.0653 12.2624ZM74.5617 6.98066L69.8703 17.2493L64.8172 6.98066H58.9354L67.9583 25.3433H71.784L80.4092 6.98066H74.5617ZM39.9519 25.3433L39.9146 0.455002H34.8633V9.0834C33.2385 7.76392 31.181 6.98066 28.9072 6.98066C23.7831 7.01569 19.6327 11.1512 19.6681 16.2154C19.7054 21.2779 23.8913 25.3783 29.0154 25.3433C31.2538 25.3433 33.3113 24.5232 34.8987 23.2387V25.3433H39.9519ZM32.2275 19.352C31.362 20.209 30.2073 20.6715 28.98 20.7084C27.7525 20.7084 26.5979 20.244 25.7324 19.3889C24.865 18.5319 24.3968 17.3912 24.3968 16.1785C24.3613 14.9678 24.865 13.862 25.695 12.9701C26.5625 12.115 27.7171 11.6506 28.9445 11.6506C30.1719 11.6506 31.3265 12.115 32.1921 12.9351C33.0576 13.7902 33.5277 14.9309 33.5631 16.1436C33.5631 17.3562 33.0949 18.4969 32.2275 19.352Z" fill="#1D1A2F"/>
<path fill-rule="evenodd" clip-rule="evenodd" d="M0.779714 32.455V27.8109H17.0474V32.455H0.779714ZM0 16.5361C0 28.2716 17.829 28.2716 17.829 16.5361C17.829 13.6114 17.829 6.90883 17.829 6.90883H13.1358C13.1358 9.99934 13.1358 13.0899 13.1358 16.1786C13.1358 22.1606 4.69134 22.1606 4.69134 16.1786C4.69134 13.0899 4.69134 9.99934 4.69134 6.90883H0C0 6.90883 0 13.6114 0 16.5361Z" fill="#1B5BF7"/>
</g>
</g>
</g>
<defs>
<clipPath id="clip0_1_2973">
<rect width="96" height="32" fill="white" transform="translate(0 0.455002)"/>
</clipPath>
<clipPath id="clip1_1_2973">
<rect width="96" height="32" fill="white" transform="translate(0 0.455002)"/>
</clipPath>
<clipPath id="clip2_1_2973">
<rect width="96" height="32" fill="white" transform="translate(0 0.455002)"/>
</clipPath>
</defs>
</svg>
