<svg width="35" height="36" viewBox="0 0 35 36" fill="none" xmlns="http://www.w3.org/2000/svg">
<g clip-path="url(#clip0_1_403)">
<path d="M16.5659 24.5798C17.1127 25.0145 17.8871 25.0143 18.4336 24.5792L28.2333 16.7778L29.1432 16.0573C29.9005 15.4576 29.9018 14.3087 29.1457 13.7074L18.4337 5.18796C17.8871 4.75327 17.1129 4.75327 16.5663 5.18796L5.84983 13.711C5.09515 14.3112 5.09466 15.4573 5.84883 16.0581L6.75208 16.7778L16.5659 24.5798Z" fill="#1B5BF7"/>
<path opacity="0.3" fill-rule="evenodd" clip-rule="evenodd" d="M18.4183 28.3677C17.8718 28.8024 17.0977 28.8024 16.5512 28.3679L7.78445 21.3983C7.20806 20.9401 6.36831 21.0414 5.91746 21.6236C5.46874 22.203 5.5773 23.037 6.15942 23.4822L16.5859 31.4569C17.1237 31.8682 17.8704 31.8683 18.4083 31.4571L28.83 23.489C29.4171 23.0402 29.5263 22.1991 29.0733 21.6152C28.6187 21.0293 27.7731 20.9277 27.1927 21.3893L18.4183 28.3677Z" fill="#1B5BF7"/>
</g>
<defs>
<clipPath id="clip0_1_403">
<rect width="35" height="35" fill="white" transform="translate(0 0.799561)"/>
</clipPath>
</defs>
</svg>
