<svg width="56" height="57" viewBox="0 0 56 57" fill="none" xmlns="http://www.w3.org/2000/svg">
<g clip-path="url(#clip0_1_2335)">
<g clip-path="url(#clip1_1_2335)">
<path d="M28 49.0293C39.598 49.0293 49 39.6273 49 28.0293C49 16.4313 39.598 7.0293 28 7.0293C16.402 7.0293 7 16.4313 7 28.0293C7 39.6273 16.402 49.0293 28 49.0293Z" stroke="#1B5BF7" stroke-width="3.5" stroke-linecap="round" stroke-linejoin="round"/>
<path d="M8.40039 21.0293H47.6004" stroke="#1B5BF7" stroke-width="3.5" stroke-linecap="round" stroke-linejoin="round"/>
<path d="M8.40039 35.0293H47.6004" stroke="#1B5BF7" stroke-width="3.5" stroke-linecap="round" stroke-linejoin="round"/>
<path d="M26.8332 7.0293C22.9023 13.3284 20.8184 20.6043 20.8184 28.0293C20.8184 35.4543 22.9023 42.7302 26.8332 49.0293" stroke="#1B5BF7" stroke-width="3.5" stroke-linecap="round" stroke-linejoin="round"/>
<path d="M29.167 7.0293C33.0979 13.3284 35.1818 20.6043 35.1818 28.0293C35.1818 35.4543 33.0979 42.7302 29.167 49.0293" stroke="#1B5BF7" stroke-width="3.5" stroke-linecap="round" stroke-linejoin="round"/>
</g>
</g>
<defs>
<clipPath id="clip0_1_2335">
<rect width="56" height="56" fill="white" transform="translate(0 0.0292969)"/>
</clipPath>
<clipPath id="clip1_1_2335">
<rect width="56" height="56" fill="white" transform="translate(0 0.0292969)"/>
</clipPath>
</defs>
</svg>
