<svg width="38" height="39" viewBox="0 0 38 39" fill="none" xmlns="http://www.w3.org/2000/svg">
<rect y="0.634766" width="38" height="38" rx="19" fill="#1B5BF7" fill-opacity="0.1"/>
<path d="M17 22.6348L22.19 19.6348L17 16.6348V22.6348ZM28.56 14.8048C28.69 15.2748 28.78 15.9048 28.84 16.7048C28.91 17.5048 28.94 18.1948 28.94 18.7948L29 19.6348C29 21.8248 28.84 23.4348 28.56 24.4648C28.31 25.3648 27.73 25.9448 26.83 26.1948C26.36 26.3248 25.5 26.4148 24.18 26.4748C22.88 26.5448 21.69 26.5748 20.59 26.5748L19 26.6348C14.81 26.6348 12.2 26.4748 11.17 26.1948C10.27 25.9448 9.69 25.3648 9.44 24.4648C9.31 23.9948 9.22 23.3648 9.16 22.5648C9.09 21.7648 9.06 21.0748 9.06 20.4748L9 19.6348C9 17.4448 9.16 15.8348 9.44 14.8048C9.69 13.9048 10.27 13.3248 11.17 13.0748C11.64 12.9448 12.5 12.8548 13.82 12.7948C15.12 12.7248 16.31 12.6948 17.41 12.6948L19 12.6348C23.19 12.6348 25.8 12.7948 26.83 13.0748C27.73 13.3248 28.31 13.9048 28.56 14.8048Z" fill="#1B5BF7"/>
</svg>
